<?xml version="1.0" encoding="utf-8"?>
<!-- Generator: Adobe Illustrator 27.5.0, SVG Export Plug-In . SVG Version: 6.00 Build 0)  -->
<svg version="1.1" xmlns="http://www.w3.org/2000/svg" xmlns:xlink="http://www.w3.org/1999/xlink" x="0px" y="0px"
	 viewBox="0 0 500 500" style="enable-background:new 0 0 500 500;" xml:space="preserve">
<g id="Background_Complete">
	<g>
		<rect y="382.398" style="fill:#EBEBEB;" width="500" height="0.25"/>
		<rect x="416.779" y="398.494" style="fill:#EBEBEB;" width="33.122" height="0.25"/>
		<rect x="322.527" y="401.208" style="fill:#EBEBEB;" width="8.693" height="0.25"/>
		<rect x="396.586" y="389.208" style="fill:#EBEBEB;" width="19.192" height="0.25"/>
		<rect x="52.459" y="390.888" style="fill:#EBEBEB;" width="43.193" height="0.25"/>
		<rect x="104.556" y="390.888" style="fill:#EBEBEB;" width="6.333" height="0.25"/>
		<rect x="131.471" y="395.111" style="fill:#EBEBEB;" width="93.676" height="0.25"/>
		<path style="fill:#EBEBEB;" d="M237.014,337.8H43.915c-3.147,0-5.708-2.561-5.708-5.708V60.66c0-3.147,2.561-5.708,5.708-5.708
			h193.099c3.146,0,5.707,2.561,5.707,5.708v271.432C242.721,335.239,240.16,337.8,237.014,337.8z M43.915,55.203
			c-3.01,0-5.458,2.448-5.458,5.458v271.432c0,3.01,2.448,5.458,5.458,5.458h193.099c3.009,0,5.457-2.448,5.457-5.458V60.66
			c0-3.009-2.448-5.458-5.457-5.458H43.915z"/>
		<path style="fill:#EBEBEB;" d="M453.31,337.8H260.212c-3.147,0-5.707-2.561-5.707-5.708V60.66c0-3.147,2.561-5.708,5.707-5.708
			H453.31c3.148,0,5.708,2.561,5.708,5.708v271.432C459.019,335.239,456.458,337.8,453.31,337.8z M260.212,55.203
			c-3.009,0-5.457,2.448-5.457,5.458v271.432c0,3.01,2.448,5.458,5.457,5.458H453.31c3.01,0,5.458-2.448,5.458-5.458V60.66
			c0-3.009-2.448-5.458-5.458-5.458H260.212z"/>
	</g>
	<g>
		<g>
			
				<rect x="60.858" y="75.655" transform="matrix(-1 -1.224647e-16 1.224647e-16 -1 195.0356 272.5385)" style="fill:#F5F5F5;" width="73.319" height="121.229"/>
			<rect x="59.404" y="75.655" style="fill:#E0E0E0;" width="1.454" height="121.229"/>
			
				<rect x="68.295" y="80.99" transform="matrix(-1 -1.224647e-16 1.224647e-16 -1 195.0357 272.5385)" style="fill:#FAFAFA;" width="58.446" height="110.56"/>
		</g>
		<g>
			
				<rect x="151.485" y="118.216" transform="matrix(-1 -1.224647e-16 1.224647e-16 -1 376.289 357.6603)" style="fill:#F5F5F5;" width="73.319" height="121.229"/>
			<rect x="150.031" y="118.216" style="fill:#E0E0E0;" width="1.454" height="121.229"/>
			
				<rect x="158.921" y="123.55" transform="matrix(-1 -1.224647e-16 1.224647e-16 -1 376.289 357.6603)" style="fill:#FAFAFA;" width="58.446" height="110.56"/>
		</g>
		<g>
			<g>
				<path style="fill:#E6E6E6;" d="M104.197,351.065c1.819-32.974-2.99-86.031-8.204-104.381c-0.692-2.434-1.478-5.255-2.66-5.628
					l0,0c-3.408-1.076-4.937,4.257-4.515,6.091c2.044,8.868,3.868,30.855,5.697,69.104c0.91,19.039-0.02,32.082,2.44,34.828
					L104.197,351.065z"/>
				<path style="fill:#E6E6E6;" d="M98.783,277.518c4.775-15.449,65.972-31.317,48.347-14.697
					c-4.394,4.143-24.826,15.049-33.222,26.521c-6.522,8.911-13.107,23.895-14.846,32.207
					C98.302,304.066,95.599,287.82,98.783,277.518z"/>
				<path style="fill:#E6E6E6;" d="M105.748,297.112c10.66-23.514,44.755-27.729,35.591-15.32
					c-3.598,4.872-16.802,10.424-25.198,21.896c-6.522,8.911-13.107,23.895-14.846,32.207
					C100.535,318.412,101.296,306.932,105.748,297.112z"/>
				<path style="fill:#E6E6E6;" d="M92.348,295.112c-12.617-30.247-58.212-32.651-46.079-18.599
					c4.613,5.342,20.717,15.139,32.892,27.755c9.458,9.801,20.121,26.045,23.747,34.955
					C100.564,320.721,97.438,307.314,92.348,295.112z"/>
				<path style="fill:#E6E6E6;" d="M97.649,261.274c11.297-20.716,45.5-22.934,35.735-11.599
					c-3.834,4.45-16.296,10.11-24.438,21.236c-6.326,8.643-13.93,19.915-15.615,27.978
					C92.593,281.932,92.643,270.455,97.649,261.274z"/>
				<path style="fill:#E6E6E6;" d="M87.813,261.678c-8.917-12.874-48.866-27.042-38.456-15.374
					c10.913,12.231,18.658,10.125,28.967,20.808c8.009,8.299,17.038,22.054,20.108,29.599
					C96.449,281.043,94.188,270.881,87.813,261.678z"/>
				<path style="fill:#E6E6E6;" d="M98.403,246.85c5.655-10.178,29.028-17.671,22.903-9.858c-4.248,5.419-9.35,9.139-14.753,16.521
					c-4.197,5.735-9.897,12.945-11.015,18.295C95.048,260.557,95.033,252.916,98.403,246.85z"/>
				<path style="fill:#E6E6E6;" d="M89.192,249.928c-5.703-6.314-36.182-21.318-29.225-11.684
					c2.731,3.783,14.362,13.014,22.197,21.133c6.087,6.307,12.766,11.441,15.098,17.174
					C95.755,264.645,94.895,256.241,89.192,249.928z"/>
				<path style="fill:#E6E6E6;" d="M97.003,272.114c-8.332-9.225-69.06-21.1-53.454-10.927c5.346,3.485,28.824,9.467,40.271,21.329
					c8.893,9.215,12.089,24.488,15.497,32.865C108.299,300.669,105.335,281.339,97.003,272.114z"/>
			</g>
			<g>
				<path style="fill:#F5F5F5;" d="M86.6,349.728l0.78,27.592c0.085,5.234,1.304,5.077,2.78,5.077h19.627
					c1.476,0,2.695,0.157,2.78-5.077l0.779-27.592c0.092-5.679-1.179-10.464-2.78-10.464H89.38
					C87.779,339.264,86.508,344.049,86.6,349.728z"/>
				<path style="fill:#F5F5F5;" d="M85.425,344.287h29.093c0.427,0,0.786-0.271,0.833-0.629l0.691-5.282
					c0.055-0.419-0.334-0.784-0.833-0.784H84.734c-0.499,0-0.888,0.366-0.833,0.784l0.691,5.282
					C84.639,344.016,84.998,344.287,85.425,344.287z"/>
			</g>
		</g>
		<g>
			<g>
				<g>
					<rect x="268.85" y="227.557" style="fill:#F0F0F0;" width="22.02" height="148.163"/>
					<rect x="273.078" y="375.72" style="fill:#F0F0F0;" width="166.923" height="6.679"/>
					
						<rect x="290.87" y="227.557" transform="matrix(-1 -1.224647e-16 1.224647e-16 -1 735.0996 603.2765)" style="fill:#F5F5F5;" width="153.359" height="148.163"/>
					<rect x="266.08" y="221.729" style="fill:#F0F0F0;" width="22.506" height="5.828"/>
					
						<rect x="288.586" y="221.729" transform="matrix(-1 -1.224647e-16 1.224647e-16 -1 735.5856 449.2855)" style="fill:#FAFAFA;" width="158.414" height="5.828"/>
					<path style="fill:#E0E0E0;" d="M436.202,297.512H298.897V239.9h137.305V297.512z M300.157,296.252h134.785V241.16H300.157
						V296.252z"/>
					<path style="fill:#E0E0E0;" d="M436.202,363.375H298.897V306.57h137.305V363.375z M300.157,362.115h134.785V307.83H300.157
						V362.115z"/>
					<path style="fill:#E0E0E0;" d="M394.283,251.231h-53.467c-1.304,0-2.37-1.067-2.37-2.37l0,0c0-1.304,1.067-2.37,2.37-2.37
						h53.467c1.304,0,2.37,1.067,2.37,2.37l0,0C396.654,250.165,395.587,251.231,394.283,251.231z"/>
					<path style="fill:#E0E0E0;" d="M394.283,317.901h-53.467c-1.304,0-2.37-1.067-2.37-2.37v0c0-1.304,1.067-2.37,2.37-2.37h53.467
						c1.304,0,2.37,1.067,2.37,2.37v0C396.654,316.835,395.587,317.901,394.283,317.901z"/>
				</g>
			</g>
		</g>
		<g>
			<g>
				<polygon style="fill:#E6E6E6;" points="360.41,221.67 424.011,221.67 429.172,164.963 365.572,164.963 				"/>
				<polygon style="fill:#F0F0F0;" points="358.248,221.67 421.849,221.67 427.01,164.963 363.409,164.963 				"/>
				<polygon style="fill:#FFFFFF;" points="416.143,215.392 420.162,171.24 369.116,171.24 365.098,215.392 				"/>
			</g>
			<g>
				<polygon style="fill:#E6E6E6;" points="345.681,180.261 341.913,221.67 372.394,221.67 376.163,180.261 				"/>
				<polygon style="fill:#F0F0F0;" points="344.102,180.261 340.333,221.67 370.815,221.67 374.584,180.261 				"/>
				<polygon style="fill:#FFFFFF;" points="348.27,184.845 345.335,217.086 366.649,217.086 369.583,184.845 				"/>
			</g>
		</g>
	</g>
</g>
<g id="Background_Simple" style="display:none;">
	<g style="display:inline;">
		<path style="fill:#407BFF;" d="M189.586,179.028c68.101,15.122,164.032-158.321,222.72-44.618
			c47.878,92.758-48.784,169.376-125.267,165.638c-77.747-3.8-149.843,118.909-205.732,3.809
			c-17.098-35.214-24.766-89.86,0.829-125.751C122.868,120.99,148.067,169.809,189.586,179.028z"/>
		<path style="opacity:0.9;fill:#FFFFFF;" d="M189.586,179.028c68.101,15.122,164.032-158.321,222.72-44.618
			c47.878,92.758-48.784,169.376-125.267,165.638c-77.747-3.8-149.843,118.909-205.732,3.809
			c-17.098-35.214-24.766-89.86,0.829-125.751C122.868,120.99,148.067,169.809,189.586,179.028z"/>
	</g>
</g>
<g id="Shadow_1_">
	<ellipse id="_x3C_Path_x3E__240_" style="fill:#F5F5F5;" cx="250" cy="416.238" rx="193.889" ry="11.323"/>
</g>
<g id="Bubble">
	<g>
		<g>
			<path style="fill:#407BFF;" d="M296.323,113.718c-3.866-9.791-15.114-14.472-24.837-10.176
				c-8.511,3.76-13.138,14.687-9.926,23.42c1.694,4.604,5.002,8.119,9.035,10.166c1.723,0.875,3.235,2.114,4.258,3.754l2.635,4.223
				c1.783,2.856,5.351,4.033,8.483,2.796l6.659-2.629c3.132-1.236,4.934-4.533,4.285-7.837l-0.996-5.066
				c-0.352-1.79-0.107-3.621,0.53-5.33C297.998,122.884,298.079,118.167,296.323,113.718z"/>
			<g>
				<path style="fill:#263238;" d="M286.817,156.318c-0.421,0-0.843-0.087-1.241-0.26c-0.765-0.332-1.352-0.938-1.656-1.708
					c-0.629-1.595,0.156-3.404,1.751-4.034l8.828-3.485c0.77-0.304,1.615-0.288,2.378,0.042c0.765,0.332,1.353,0.938,1.656,1.708
					c0.305,0.77,0.289,1.614-0.042,2.378c-0.332,0.765-0.938,1.352-1.708,1.656l-8.829,3.485
					C287.587,156.246,287.202,156.318,286.817,156.318z M295.636,147.614c-0.261,0-0.52,0.049-0.77,0.146l-8.828,3.485
					c-1.082,0.428-1.615,1.655-1.188,2.737c0.206,0.521,0.605,0.933,1.124,1.157c0.518,0.226,1.091,0.235,1.613,0.03l8.829-3.485
					c0.522-0.206,0.933-0.605,1.157-1.124c0.226-0.518,0.236-1.092,0.03-1.613c-0.206-0.521-0.605-0.933-1.124-1.157
					C296.208,147.673,295.922,147.614,295.636,147.614z"/>
				<path style="fill:#263238;" d="M291.315,161.696c-0.262,0-0.524-0.054-0.773-0.161c-0.476-0.207-0.842-0.585-1.031-1.064
					l-0.154-0.389c-0.392-0.993,0.098-2.121,1.091-2.514l5.516-2.178c0.994-0.389,2.121,0.097,2.513,1.09l0.153,0.391
					c0.19,0.479,0.181,1.005-0.025,1.48c-0.206,0.476-0.584,0.842-1.064,1.031l-5.516,2.178
					C291.795,161.651,291.556,161.696,291.315,161.696z M296.674,156.255c-0.114,0-0.23,0.021-0.343,0.065l-5.516,2.178
					c-0.48,0.191-0.718,0.735-0.528,1.216l0.154,0.389c0.092,0.233,0.268,0.415,0.499,0.515c0.231,0.101,0.485,0.104,0.717,0.014
					l5.516-2.178c0.232-0.092,0.414-0.268,0.515-0.5c0.1-0.23,0.104-0.484,0.013-0.716l-0.153-0.391
					C297.401,156.48,297.048,156.255,296.674,156.255z"/>
			</g>
			<g>
				<path style="fill:#FFFFFF;" d="M274.911,131.457c-1.495,0-2.912-0.9-3.493-2.374c-0.76-1.924,0.188-4.106,2.111-4.865
					c1.926-0.759,4.106,0.189,4.865,2.111l1.378,3.488l-3.488,1.377C275.834,131.372,275.368,131.457,274.911,131.457z
					 M274.903,124.955c-0.336,0-0.677,0.063-1.007,0.192c-1.411,0.557-2.105,2.158-1.549,3.568c0.558,1.41,2.159,2.105,3.569,1.549
					l2.559-1.01l-1.011-2.559C277.038,125.616,276,124.955,274.903,124.955z"/>
				<polygon style="fill:#FFFFFF;" points="285.971,148.24 278.475,129.255 285.366,126.534 292.861,145.52 291.931,145.887 
					284.804,127.831 279.772,129.817 286.9,147.873 				"/>
				<path style="fill:#FFFFFF;" d="M284.804,127.831l-1.378-3.488c-0.76-1.924,0.188-4.107,2.111-4.866
					c1.922-0.763,4.106,0.187,4.866,2.111c0.76,1.924-0.188,4.107-2.111,4.866L284.804,127.831z M286.911,120.214
					c-0.335,0-0.677,0.063-1.007,0.192c-1.411,0.558-2.105,2.158-1.549,3.569l1.011,2.559l2.559-1.01
					c1.411-0.558,2.105-2.158,1.549-3.569C289.047,120.875,288.008,120.214,286.911,120.214z"/>
			</g>
		</g>
		<path style="fill:#407BFF;" d="M300.334,175.492c-3.783,0-7.555-0.307-11.21-0.911l0.164-0.986
			c3.601,0.596,7.317,0.898,11.046,0.898V175.492z"/>
		<path style="fill:#407BFF;" d="M321.022,185.846l0.529-1.079c2.191-4.463,1.959-9.699,1.051-13.063
			c-3.791,1.374-7.817,2.389-11.977,3.02l-0.15-0.988c4.277-0.648,8.41-1.71,12.284-3.154l0.497-0.185l0.155,0.506
			c0.999,3.246,1.41,8.508-0.475,13.208c12.288-4.886,25.119-22.246,25.119-42.926c0-18.366-21.408-33.308-47.723-33.308
			c-26.313,0-47.722,14.941-47.722,33.308c0,13.348,11.369,25.372,28.965,30.633l-0.287,0.959
			c-18.028-5.391-29.678-17.791-29.678-31.592c0-18.917,21.856-34.308,48.722-34.308c26.866,0,48.723,15.391,48.723,34.308
			c0,21.738-13.961,39.908-26.895,44.276L321.022,185.846z"/>
		<g>
			<path style="fill:#407BFF;" d="M353.854,143.857l-33.322,5.951c-2.38,0.425-4.674-1.174-5.099-3.554l-3.546-19.852
				c-0.425-2.38,1.174-4.674,3.554-5.099l33.322-5.951c2.38-0.425,4.674,1.174,5.099,3.554l3.546,19.852
				C357.833,141.137,356.234,143.432,353.854,143.857z"/>
			<polygon style="fill:#FFFFFF;" points="340.756,131.489 328.965,127.227 331.169,139.57 			"/>
		</g>
	</g>
</g>
<g id="Character_1_">
	<g>
		<g>
			<path style="fill:#407BFF;" d="M215.266,307.578h-84.968c-1.752,0-3.186-1.434-3.186-3.186v-4.539
				c0-1.752,1.434-3.186,3.186-3.186h84.968c1.752,0,3.186,1.434,3.186,3.186v4.539
				C218.453,306.145,217.019,307.578,215.266,307.578z"/>
			<g>
				<polygon style="fill:#407BFF;" points="214.299,410.241 216.833,410.241 213.916,307.578 210.411,307.578 				"/>
				<polygon style="opacity:0.3;fill:#FFFFFF;" points="214.299,410.241 216.833,410.241 213.916,307.578 210.411,307.578 				"/>
			</g>
			<g>
				<polygon style="fill:#407BFF;" points="190.974,410.241 188.44,410.241 191.357,307.578 194.863,307.578 				"/>
				<polygon style="opacity:0.3;fill:#FFFFFF;" points="190.974,410.241 188.44,410.241 191.357,307.578 194.863,307.578 				"/>
			</g>
			<g>
				<polygon style="fill:#407BFF;" points="154.591,410.241 157.125,410.241 154.208,307.578 150.702,307.578 				"/>
				<polygon style="opacity:0.3;fill:#FFFFFF;" points="154.591,410.241 157.125,410.241 154.208,307.578 150.702,307.578 				"/>
			</g>
			<g>
				<polygon style="fill:#407BFF;" points="131.266,410.241 128.732,410.241 131.648,307.578 135.154,307.578 				"/>
				<polygon style="opacity:0.3;fill:#FFFFFF;" points="131.266,410.241 128.732,410.241 131.648,307.578 135.154,307.578 				"/>
			</g>
		</g>
		<g>
			<g>
				<g>
					<g>
						<g>
							<polygon style="fill:#FFC3BD;" points="241.315,384.154 250.328,381.096 242.915,360.036 233.902,363.095 							"/>
							<path style="fill:#263238;" d="M249.664,377.619l-9.888,4.337c-0.36,0.158-0.496,0.514-0.328,0.856l3.751,7.622
								c0.389,0.79,1.566,1.184,2.387,0.807c3.411-1.566,4.946-2.479,9.294-4.386c2.675-1.173,8.071-3.266,11.408-5.413
								c3.264-2.1,0.719-5.255-0.922-4.63c-3.887,1.479-10.352,1.415-13.892,0.656C250.834,377.33,250.191,377.388,249.664,377.619z
								"/>
							<g>
								<polygon style="opacity:0.2;" points="233.902,363.101 242.919,360.041 247.153,372.086 237.982,374.708 								"/>
							</g>
							<path style="fill:#263238;" d="M177.425,268.191c0,0,45.023,8.121,48.627,22.898c7.127,29.225,23.206,74.921,23.206,74.921
								l-17.123,4.955c0,0-24.474-52.402-27.558-70.043c-25.243-0.025-56.024,2.04-59.998-8.686
								c-3.511-9.475-2.258-24.046-2.258-24.046H177.425z"/>
							<polygon style="fill:#407BFF;" points="231.196,374.005 251.201,367.403 249.494,358.374 227.676,366.048 							"/>
						</g>
						<g>
							<polygon style="fill:#FFC3BD;" points="202.108,387.353 212.072,388.111 206.216,363.533 196.932,365.634 							"/>
							<path style="fill:#263238;" d="M211.818,385.708l-10.732-1.186c-0.391-0.043-0.686,0.197-0.711,0.577l-0.561,8.476
								c-0.058,0.879,0.764,1.808,1.664,1.892c3.737,0.348,5.523,0.324,10.242,0.846c2.904,0.321,8.623,1.205,12.586,1.013
								c3.876-0.188,3.25-4.193,1.515-4.472c-4.106-0.661-9.674-3.948-12.361-6.375
								C212.975,386.043,212.389,385.772,211.818,385.708z"/>
							<g>
								<polygon style="opacity:0.2;" points="196.932,365.641 206.219,363.539 209.173,375.959 199.779,377.61 								"/>
							</g>
							<path style="fill:#263238;" d="M154.039,268.191c0,0,54.709,8.193,52.204,28.898c-3.613,29.863,5.658,73.047,5.658,73.047
								l-17.546,3.142c0,0-12.908-53.682-13.023-71.589c-17.801,0-48.906,1.274-52.88-9.452c-3.511-9.475-2.258-24.046-2.258-24.046
								H154.039z"/>
							<polygon style="fill:#407BFF;" points="193.103,376.203 213.688,371.724 212.932,362.567 190.432,367.922 							"/>
						</g>
						<g>
							<path style="fill:#FFC3BD;" d="M182.862,210.64c1.462,5.717,2.888,11.489,4.289,17.236c1.403,5.747,2.772,11.511,4.217,17.19
								l1.09,4.235l0.563,2.083l0.286,1.035l0.036,0.129l0.018,0.065c0.008,0.026-0.03-0.093-0.046-0.131
								c-0.087-0.234-0.208-0.456-0.286-0.595c-0.044-0.077-0.102-0.161-0.147-0.224c-0.035-0.053-0.073-0.104-0.113-0.154
								c-0.096-0.112-0.138-0.162-0.197-0.219c-0.215-0.202-0.243-0.17-0.194-0.117c0.045,0.059,0.2,0.171,0.363,0.29
								c0.353,0.243,0.839,0.519,1.378,0.782c1.082,0.535,2.344,1.022,3.627,1.521c5.206,1.929,10.947,3.568,16.527,5.345
								l-0.878,6.379c-3.115,0.04-6.135-0.097-9.206-0.363c-3.065-0.271-6.129-0.659-9.273-1.295
								c-1.581-0.309-3.165-0.71-4.856-1.26c-0.847-0.279-1.725-0.605-2.687-1.059c-0.491-0.236-0.984-0.492-1.549-0.861
								c-0.561-0.372-1.175-0.806-1.891-1.559c-0.182-0.197-0.352-0.382-0.551-0.649l-0.277-0.38
								c-0.095-0.141-0.196-0.308-0.287-0.465c-0.179-0.296-0.367-0.692-0.522-1.099l-0.168-0.466l-0.384-1.095l-0.751-2.184
								c-0.486-1.451-0.97-2.893-1.411-4.337c-1.814-5.774-3.455-11.532-5.019-17.316c-1.555-5.788-3.002-11.572-4.339-17.428
								L182.862,210.64z"/>
							<g>
								<g>
									<path style="fill:#407BFF;" d="M168.798,203.724c5.489-6.123,14.196-1.844,17.861,11.852
										c1.783,6.664,1.223,10.146,1.223,10.146l-18.945,5.833C164.87,222.559,161.328,212.057,168.798,203.724z"/>
								</g>
								<g style="opacity:0.2;">
									<path d="M168.798,203.724c5.489-6.123,14.196-1.844,17.861,11.852c1.783,6.664,1.223,10.146,1.223,10.146l-18.945,5.833
										C164.87,222.559,161.328,212.057,168.798,203.724z"/>
								</g>
							</g>
							<path style="fill:#FFC3BD;" d="M224.154,256.503l-1.701-0.522c-1.028-0.316-2.111-0.414-3.18-0.288l-3.654,0.43
								c-2.449,0.621-4.506,2.197-5.569,4.268l-1.24,2.415c0.622,4.467,9.664,3.031,9.664,3.031h8.504l-0.281-6.056
								C226.626,258.261,225.609,256.949,224.154,256.503z"/>
							<path style="fill:#263238;" d="M230.018,246.744c-0.172,1.834-1.136,3.131-2.067,4.452c-0.91,1.334-1.846,2.65-2.797,3.957
								c-1.915,2.604-3.865,5.183-6.012,7.629c-0.212,0.241-0.579,0.265-0.82,0.053c-0.204-0.179-0.252-0.469-0.134-0.7
								c1.478-2.9,3.153-5.666,4.864-8.408c0.862-1.366,1.738-2.723,2.641-4.062c0.882-1.353,1.731-2.729,3.371-3.567
								c0.324-0.165,0.72-0.037,0.885,0.286C230.008,246.499,230.03,246.623,230.018,246.744z"/>
						</g>
						<path style="fill:#407BFF;" d="M170.07,197.788l-10.674-3.045l-13.728-0.648c-4.283-0.202-8.153,2.487-9.49,6.56
							c-2.618,7.975-5.025,19.529-6.779,29.499c-1.967,11.18-2.991,22.764-3.207,38.036h51.232
							c1.044-28.456,4.392-42.354,6.375-52.424c1.211-6.149-1.888-12.337-7.547-15.033L170.07,197.788z"/>
						<path style="fill:#FFFFFF;" d="M155.755,199.792c1.302,3.343,6.337,10.474,12.189,13.264c3.248-2.346,3.944-7.472,4.438-9.875
							L155.755,199.792z"/>
						<path style="fill:#FFC3BD;" d="M172.383,203.181c0.281-1.369,0.303-2.773-0.442-3.938c-0.831-1.3-0.622-2.79,0.208-4.321
							c0.541-0.999,2.027-3.13,2.449-3.332l-6.711-7.853l-5.472-6.333c-0.468,5.926-0.927,13.274-5.603,17.878
							c-1.651,1.625-1.988,2.119-1.057,4.51c1.302,3.343,5.952,8.002,11.805,10.792
							C170.808,208.238,171.889,205.583,172.383,203.181z"/>
						<path style="opacity:0.2;" d="M172.537,190.245l-3.784-6.151c-0.077,0.153-0.167,0.33-0.257,0.507
							c-0.296,0.66-0.592,1.485-0.811,2.356c-0.695,2.733,1.622,6.633,4.17,8.495c0.103-0.177,0.193-0.354,0.296-0.53
							c0.476-0.896,1.83-2.851,2.294-3.228c0.051-0.047,0.103-0.083,0.154-0.106L172.537,190.245z"/>
						<path style="fill:#263238;" d="M185.784,175.542c0.876,5.671,8.991-8.921,4.458-12.125
							C184.701,159.5,184.118,164.75,185.784,175.542z"/>
						<path style="fill:#FFC3BD;" d="M162.673,168.143c-0.519,9.208-1.309,14.562,2.917,19.88
							c6.357,7.999,18.572,5.361,21.936-3.455c3.028-7.935,3.368-21.66-5.48-26.517C173.33,153.265,163.193,158.935,162.673,168.143
							z"/>
						<path style="fill:#263238;" d="M180.819,162.611c0,0,5.893,5.778,10.088,3.389c4.188-2.386,5.056-8.576,0-14
							c-2.43-2.607-6.109-5.159-13.331-4.958c0.528,0.694,2.042,1.25,2.042,1.25s-9.153-1.532-15.542,1.097
							c0,0,0.833,1.278,2.042,1.861c-6.208-0.472-12.244,1.958-7.955,7.833c-5.628,0.542-6.892,7.75-3.892,12.5
							s3.528,8.306,7.542,10.467c0.041-6.467,1.486-7.995,1.486-7.995c2.889-1.222,6.222-7.389,5.556-10.5
							C174.909,166,181.499,166.819,180.819,162.611z"/>
						<path style="fill:#263238;" d="M159.52,158.833c-1.76-1.452-3.278-2.771-4.394-5.555c-0.717,3.222,2.616,6.889,2.616,6.889
							L159.52,158.833z"/>
						<path style="fill:#FFC3BD;" d="M158.07,173.174c0.053,2.258,1.068,4.338,2.335,5.669c1.905,2.003,4.51,0.302,4.962-2.269
							c0.407-2.314-0.574-5.845-2.959-6.887C160.058,168.662,158.01,170.591,158.07,173.174z"/>
						<path style="fill:#263238;" d="M177.752,172.894c-0.153,0.758,0.121,1.467,0.613,1.584c0.491,0.117,1.014-0.402,1.167-1.16
							c0.153-0.758-0.121-1.467-0.613-1.584C178.427,171.617,177.905,172.136,177.752,172.894z"/>
						<path style="fill:#263238;" d="M186.247,174.917c-0.153,0.758,0.121,1.467,0.613,1.584c0.491,0.117,1.014-0.402,1.167-1.16
							c0.153-0.758-0.121-1.467-0.613-1.584C186.922,173.64,186.4,174.16,186.247,174.917z"/>
						<path style="fill:#ED847E;" d="M183.417,174.861c0,0,0.43,4.107,1.52,6.363c-1.397,0.704-3.157-0.362-3.157-0.362
							L183.417,174.861z"/>
						<path style="fill:#263238;" d="M180.207,185.108c-2.974-0.65-4.231-2.868-4.287-2.97c-0.061-0.109-0.021-0.247,0.089-0.308
							c0.11-0.061,0.247-0.021,0.308,0.089c0.014,0.025,1.443,2.552,4.824,2.877c0.126,0.011,0.216,0.123,0.204,0.248
							c-0.012,0.125-0.123,0.216-0.248,0.204C180.784,185.217,180.488,185.169,180.207,185.108z"/>
						<path style="fill:#263238;" d="M176.633,169.829c-0.069-0.027-0.133-0.072-0.184-0.133c-0.159-0.194-0.132-0.48,0.062-0.639
							c1.915-1.577,3.916-0.923,3.999-0.895c0.231,0.054,0.365,0.337,0.284,0.575c-0.081,0.237-0.337,0.364-0.575,0.284
							c-0.083-0.027-1.629-0.503-3.132,0.736C176.956,169.866,176.782,169.888,176.633,169.829z"/>
						<path style="fill:#263238;" d="M187.303,170.014c-0.017-0.072-0.016-0.15,0.005-0.227c0.068-0.241,0.319-0.382,0.56-0.313
							c2.387,0.675,2.99,2.692,3.014,2.777c0.087,0.221-0.069,0.492-0.311,0.561c-0.241,0.069-0.492-0.07-0.561-0.31
							c-0.025-0.083-0.515-1.625-2.389-2.155C187.457,170.301,187.34,170.169,187.303,170.014z"/>
						<g>
							<path style="fill:#FFC3BD;" d="M147.814,207.876c-1.926,5.481-3.844,11.196-5.559,16.789
								c-0.866,2.806-1.653,5.616-2.368,8.39c-0.69,2.766-1.282,5.545-1.594,8.071c-0.03,0.306-0.079,0.633-0.095,0.923
								l-0.032,0.442c-0.011,0.138-0.024,0.352-0.026,0.283c-0.029-0.016-0.077,0.052-0.023,0.262
								c0.087,0.41,0.515,1.238,1.209,2.06c1.401,1.677,3.532,3.441,5.799,5.022c4.565,3.211,9.875,6.07,15.054,8.745l-2.055,6.103
								c-3.176-0.675-6.141-1.544-9.158-2.579c-3.001-1.035-5.965-2.248-8.913-3.729c-2.929-1.538-5.874-3.218-8.708-5.913
								c-1.397-1.367-2.853-2.992-3.92-5.402c-0.525-1.193-0.913-2.629-0.999-4.162c-0.028-0.448-0.021-0.613-0.025-0.855
								l-0.005-0.697c-0.006-0.469,0.021-0.898,0.031-1.351c0.141-3.533,0.657-6.743,1.256-9.908
								c0.596-3.157,1.348-6.225,2.152-9.258c1.643-6.08,3.537-11.907,5.813-17.822L147.814,207.876z"/>
							<g>
								<path style="fill:#407BFF;" d="M145.02,194.089c9.779-0.088,11.63,7.518,6.309,19.585c-2.783,6.312-7.44,12.327-7.44,12.327
									l-16.173-8.592C129.884,207.776,133.829,194.189,145.02,194.089z"/>
							</g>
							<path style="fill:#FFC3BD;" d="M171.997,257.876l-3.578-1.96c-0.585-0.32-1.257-0.444-1.917-0.353l-4.298,0.594
								c-2.891,0.303-4.994,2.514-6.569,4.435l-1.837,2.24c-0.088,4.517,11.333,3.455,11.333,3.455l9.991-0.126l-0.313-3.94
								C174.663,260.392,173.606,258.758,171.997,257.876z"/>
						</g>
					</g>
				</g>
			</g>
		</g>
	</g>
</g>
<g id="Desk">
	<g>
		<g>
			<rect x="114.654" y="263.889" style="fill:#407BFF;" width="270.692" height="12.667"/>
			<rect x="114.654" y="263.889" style="opacity:0.3;fill:#FFFFFF;" width="87.802" height="12.667"/>
			<rect x="117.761" y="276.556" style="fill:#407BFF;" width="4.143" height="139.682"/>
			<rect x="117.761" y="276.556" style="opacity:0.7;fill:#FFFFFF;" width="4.143" height="139.682"/>
			<rect x="195.206" y="276.556" style="fill:#407BFF;" width="4.143" height="139.682"/>
			<rect x="195.206" y="276.556" style="opacity:0.7;fill:#FFFFFF;" width="4.143" height="139.682"/>
			<rect x="300.651" y="276.556" style="fill:#407BFF;" width="4.143" height="139.682"/>
			<rect x="300.651" y="276.556" style="opacity:0.7;fill:#FFFFFF;" width="4.143" height="139.682"/>
			<rect x="378.096" y="276.556" style="fill:#407BFF;" width="4.143" height="139.682"/>
			<rect x="378.096" y="276.556" style="opacity:0.7;fill:#FFFFFF;" width="4.143" height="139.682"/>
		</g>
		<g>
			<path style="fill:#263238;" d="M355.954,207.889h-74c-2.506,0-4.893,2.05-5.306,4.555l-7.719,46.889
				c-0.413,2.506,1.3,4.556,3.806,4.556h74c2.506,0,4.893-2.05,5.306-4.556l7.72-46.889
				C360.172,209.939,358.46,207.889,355.954,207.889z"/>
			<path style="fill:#263238;" d="M309.011,260.833h-69.667c-0.458,0-0.833,0.375-0.833,0.833v1.389
				c0,0.458,0.375,0.833,0.833,0.833h69.667c0.458,0,0.833-0.375,0.833-0.833v-1.389
				C309.845,261.208,309.47,260.833,309.011,260.833z"/>
			<path style="opacity:0.2;fill:#FFFFFF;" d="M355.954,207.889h-72.333c-2.505,0-4.893,2.05-5.305,4.555l-7.72,46.889
				c-0.413,2.506,1.3,4.556,3.806,4.556h72.333c2.506,0,4.893-2.05,5.306-4.556l7.72-46.889
				C360.172,209.939,358.46,207.889,355.954,207.889z"/>
		</g>
		<g>
			<path style="fill:#407BFF;" d="M164.459,260.833c0,0,23.834,3.546,35.327-1.144c5.381,2.588,24.548,3.866,31.214,1.144
				c-2.056,2.389-6.897,3.056-6.897,3.056s-45.437,0-50.27,0C169,263.889,165.307,261.778,164.459,260.833z"/>
			<path style="opacity:0.7;fill:#FFFFFF;" d="M164.459,260.833c0,0,23.834,3.546,35.327-1.144
				c5.381,2.588,24.548,3.866,31.214,1.144c-2.056,2.389-6.897,3.056-6.897,3.056s-45.437,0-50.27,0
				C169,263.889,165.307,261.778,164.459,260.833z"/>
		</g>
	</g>
</g>
</svg>
